<svg version="1.1" id="Layer_1" xmlns="http://www.w3.org/2000/svg" xmlns:xlink="http://www.w3.org/1999/xlink" x="0px" y="0px"
	 width="100%" viewBox="0 0 500 500" enable-background="new 0 0 500 500" xml:space="preserve">
<path fill="#FFFFFF" opacity="1.000000" stroke="none" 
	d="
M291.000000,501.000000 
	C195.333359,501.000000 100.166679,500.976379 5.000188,501.095673 
	C1.576176,501.099945 0.903036,500.423828 0.905301,497.000000 
	C1.013778,333.000092 1.013756,169.000137 0.905337,5.000250 
	C0.903074,1.576957 1.575784,0.903021 4.999873,0.905286 
	C168.999756,1.013775 332.999725,1.013761 496.999634,0.905354 
	C500.422668,0.903091 501.096985,1.575424 501.094727,4.999754 
	C500.986206,168.999634 500.986237,332.999603 501.094604,496.999512 
	C501.096893,500.422272 500.425720,501.102997 497.000244,501.096527 
	C428.500336,500.967285 360.000153,501.000000 291.000000,501.000000 
z"/>
<path fill="#030303" opacity="1.000000" stroke="none" 
	d="
M329.000000,299.005493 
	C246.377594,299.005493 164.255142,298.974304 82.132912,299.097168 
	C78.004395,299.103333 76.582840,298.473511 76.625275,293.850891 
	C76.888313,265.202057 76.814201,236.549393 76.686249,207.898743 
	C76.670174,204.300140 77.181465,202.878891 81.382942,202.884033 
	C194.488495,203.022614 307.594238,203.009598 420.699890,202.920258 
	C424.034180,202.917633 425.179230,203.480957 425.157776,207.148865 
	C424.987457,236.298828 424.969757,265.450867 425.172760,294.600433 
	C425.200256,298.548279 423.971802,299.101868 420.450287,299.085632 
	C390.134033,298.946228 359.816895,299.005493 329.000000,299.005493 
z"/>
<path fill="#FDFDFD" opacity="1.000000" stroke="none" 
	d="
M379.000000,295.997406 
	C280.537262,295.997406 182.574463,295.968811 84.611870,296.094482 
	C80.375351,296.099945 79.061310,295.325500 79.105286,290.760529 
	C79.363655,263.939850 79.302368,237.115067 79.147606,210.292816 
	C79.127228,206.762268 80.093536,205.922897 83.558510,205.925797 
	C195.016052,206.019104 306.473694,206.019394 417.931244,205.923996 
	C421.371216,205.921051 422.339966,206.683868 422.318512,210.239120 
	C422.154694,237.394470 422.159943,264.551666 422.313934,291.707123 
	C422.333588,295.175690 421.511444,296.149139 417.983582,296.086823 
	C405.159180,295.860229 392.328400,295.997406 379.000000,295.997406 
z"/>
<path fill="#010101" opacity="1.000000" stroke="none" 
	d="
M156.000000,289.998718 
	C133.677795,289.998718 111.855164,289.930786 90.033897,290.073273 
	C86.829834,290.094177 85.894287,289.339233 85.916222,286.022583 
	C86.070442,262.702179 86.058273,239.379929 85.926987,216.059219 
	C85.909195,212.899841 86.591858,211.912003 89.951637,211.919540 
	C142.091431,212.036545 194.231705,212.050705 246.371338,211.900620 
	C250.229034,211.889526 250.513214,213.320084 250.496964,216.476700 
	C250.378662,239.464371 250.343781,262.453613 250.524963,285.440460 
	C250.553818,289.102875 249.775436,290.123749 245.953659,290.100220 
	C216.136688,289.916626 186.318100,289.998688 156.000000,289.998718 
z"/>
<path fill="#0A0A0A" opacity="1.000000" stroke="none" 
	d="
M377.453247,251.809006 
	C379.765167,258.184662 377.325165,262.176270 371.047852,262.952850 
	C370.883545,262.973145 370.715973,262.965637 370.550751,262.980194 
	C356.159790,264.250305 356.159790,264.250336 356.159821,249.897705 
	C356.159821,249.233582 356.065521,248.553391 356.175446,247.908005 
	C356.791870,244.289459 354.201263,238.429367 357.361023,237.436203 
	C362.417847,235.846710 368.545715,235.761505 373.938446,237.953461 
	C378.171600,239.674088 379.432587,243.847687 376.515137,247.774948 
	C374.875885,249.981552 376.260925,250.434570 377.453247,251.809006 
z"/>
<path fill="#0A0A0A" opacity="1.000000" stroke="none" 
	d="
M320.833618,263.008911 
	C315.998230,263.870697 314.300079,262.150299 315.053589,257.730896 
	C315.552673,254.803574 315.210419,252.897751 311.127869,252.935715 
	C307.230194,252.971954 306.585510,254.544205 307.078949,257.648041 
	C307.731873,261.755188 306.609985,263.824097 301.914154,263.114624 
	C299.891479,262.809021 299.461548,262.126923 299.477142,260.339020 
	C299.536774,253.508438 299.663269,246.671539 299.433838,239.848145 
	C299.312469,236.238388 301.552368,236.951935 303.648590,236.814026 
	C305.986053,236.660248 307.105530,237.056396 307.245026,239.936447 
	C307.345428,242.009323 304.563965,245.863129 309.970367,246.191223 
	C313.988342,246.435059 315.874329,245.513092 315.117798,241.168762 
	C314.634827,238.395264 315.088715,236.615982 318.856995,236.693115 
	C322.262299,236.762802 323.036957,237.822983 322.920441,240.983963 
	C322.693512,247.140244 322.903687,253.311539 322.813080,259.474854 
	C322.794312,260.751801 323.724579,262.670715 320.833618,263.008911 
z"/>
<path fill="#0D0D0D" opacity="1.000000" stroke="none" 
	d="
M335.710266,239.329330 
	C335.742126,243.950500 335.744171,248.103607 335.810577,252.255676 
	C335.846619,254.510498 336.744049,256.143402 339.267212,256.269287 
	C342.011230,256.406189 343.216156,254.832626 343.283203,252.309204 
	C343.393433,248.159348 343.590118,243.995422 343.367310,239.858047 
	C343.174500,236.277908 345.446655,236.913757 347.562531,236.810181 
	C349.801331,236.700607 351.313538,236.834152 351.096863,239.876007 
	C350.790649,244.174500 351.147949,248.516251 350.960327,252.828140 
	C350.668304,259.538727 346.438385,263.485260 339.730194,263.586273 
	C332.845917,263.689911 328.371552,259.627045 328.060730,252.736359 
	C327.873779,248.590881 327.929657,244.428436 328.051544,240.278763 
	C328.087677,239.048172 327.118073,236.667068 329.567413,236.972351 
	C331.620697,237.228287 334.744141,234.910477 335.710266,239.329330 
z"/>
<path fill="#EAEAEA" opacity="1.000000" stroke="none" 
	d="
M175.351013,261.728271 
	C174.445557,260.932617 173.731323,260.431274 173.295776,259.751434 
	C172.429092,258.398621 170.925476,256.482513 172.329834,255.367538 
	C174.500793,253.643845 175.066360,256.239502 176.127243,257.603119 
	C178.685501,260.891327 182.196106,260.558075 185.649780,259.494995 
	C186.918915,259.104309 187.835541,257.940552 187.911072,256.466949 
	C187.997955,254.772202 187.089096,253.572769 185.584229,252.994156 
	C182.966949,251.987854 180.279556,251.165634 177.640762,250.213074 
	C174.257675,248.991852 171.712753,246.973541 172.063232,242.979645 
	C172.430511,238.794220 175.409729,237.169846 179.116135,236.463959 
	C184.244293,235.487335 188.934723,237.580872 190.430557,241.503052 
	C190.840210,242.577194 191.555511,243.845749 190.109467,244.509384 
	C188.939011,245.046555 187.835495,244.452515 187.310867,243.166885 
	C185.775253,239.403900 182.643814,239.464294 179.383224,239.855118 
	C177.351410,240.098694 175.890533,241.111618 175.693970,243.243591 
	C175.518219,245.149750 176.685089,246.363602 178.389893,246.957565 
	C180.732376,247.773682 183.161163,248.351624 185.478058,249.229416 
	C189.129196,250.612701 192.036682,252.682999 191.290771,257.265381 
	C190.563370,261.734161 187.270905,263.006897 183.371429,263.374084 
	C180.684677,263.627075 178.070053,263.310364 175.351013,261.728271 
z"/>
<path fill="#E2E2E2" opacity="1.000000" stroke="none" 
	d="
M206.691635,247.968872 
	C211.265594,248.216339 213.033936,245.675400 214.096909,242.179871 
	C214.577972,240.597946 215.210098,239.044479 215.944687,237.562866 
	C216.495834,236.451218 217.688614,236.654602 218.579880,236.975220 
	C219.708328,237.381134 219.133377,238.387222 218.895172,239.091980 
	C218.257736,240.977905 217.953079,243.216263 216.722595,244.617844 
	C212.654999,249.250977 214.724686,253.194366 217.472366,257.292664 
	C218.567261,258.925751 219.422958,260.719177 220.435837,262.525787 
	C218.201279,263.451691 216.753799,263.243408 215.707077,261.112030 
	C214.463882,258.580597 212.708160,256.281525 211.634171,253.691193 
	C210.307205,250.490784 207.770035,250.916992 205.401810,251.290024 
	C202.622910,251.727753 204.011032,254.171432 203.819672,255.744888 
	C203.599960,257.551575 203.750763,259.404297 203.755630,261.236969 
	C203.758850,262.451263 203.194946,263.035492 201.958237,263.043365 
	C200.721756,263.051208 200.158112,262.488037 200.158813,261.260773 
	C200.163116,253.762955 200.169662,246.265091 200.136185,238.767395 
	C200.130829,237.572144 200.495590,236.876724 201.777252,236.826248 
	C203.261597,236.767776 203.840881,237.439148 203.787048,238.923920 
	C203.708603,241.087082 203.863693,243.260544 203.743103,245.419785 
	C203.637177,247.316360 204.245880,248.268951 206.691635,247.968872 
z"/>
<path fill="#EAEAEA" opacity="1.000000" stroke="none" 
	d="
M149.759705,242.618439 
	C150.320724,241.177734 150.696472,240.074799 151.181107,239.022003 
	C151.648468,238.006729 151.925034,236.829376 153.491425,236.809891 
	C155.172318,236.788971 155.681000,237.757370 156.230331,239.116714 
	C159.393692,246.944504 162.658524,254.731308 165.901062,262.561218 
	C163.748138,263.453735 162.151337,263.289276 161.626175,260.822235 
	C160.872391,257.281158 158.480240,256.775696 155.340530,257.018188 
	C151.318054,257.328857 146.459259,255.524719 145.323441,261.858063 
	C145.041534,263.429962 143.445251,263.290466 142.460266,262.897919 
	C141.104401,262.357605 142.073471,261.238251 142.398834,260.441345 
	C144.779877,254.609375 147.208481,248.796814 149.759705,242.618439 
z"/>
<path fill="#E2E2E2" opacity="1.000000" stroke="none" 
	d="
M128.821289,236.803925 
	C130.783600,236.803787 132.280640,236.771179 133.775574,236.813507 
	C135.032547,236.849075 136.702545,236.421463 136.596207,238.555664 
	C136.486588,240.755615 134.612549,240.141434 133.567734,239.959534 
	C128.641571,239.101852 127.302719,241.109436 127.752876,245.846497 
	C128.206879,250.624191 127.861351,255.478775 127.845596,260.299591 
	C127.841370,261.593506 128.121704,263.087311 126.011787,263.044495 
	C123.917816,263.002014 124.245567,261.488037 124.240456,260.216522 
	C124.218399,254.730774 124.028610,249.234619 124.307457,243.763031 
	C124.468300,240.606766 123.456749,239.524338 120.423584,240.001892 
	C119.450523,240.155075 118.432419,240.033005 117.435181,240.018768 
	C116.392479,240.003891 115.426964,239.917603 115.455933,238.469421 
	C115.482315,237.150513 116.247780,236.802582 117.383469,236.804428 
	C121.040665,236.810364 124.697891,236.804962 128.821289,236.803925 
z"/>
<path fill="#EAEAEA" opacity="1.000000" stroke="none" 
	d="
M370.884033,254.206299 
	C370.099426,258.876434 366.869263,257.238342 364.415283,256.983917 
	C363.392456,256.877869 363.794891,255.328125 363.761902,254.400665 
	C363.723663,253.325043 364.067780,252.433914 365.347748,252.437073 
	C367.266510,252.441818 369.310974,252.027451 370.884033,254.206299 
z"/>
<path fill="#EAEAEA" opacity="1.000000" stroke="none" 
	d="
M370.150574,245.096008 
	C369.464752,247.065399 368.111084,247.010864 366.767334,247.073059 
	C364.989136,247.155365 363.569580,247.190659 363.679016,244.605621 
	C363.787903,242.033493 365.307007,242.130508 367.020996,242.270203 
	C368.557404,242.395401 370.035583,242.684113 370.150574,245.096008 
z"/>
<path fill="#0D0D0D" opacity="1.000000" stroke="none" 
	d="
M152.385178,244.638351 
	C153.110672,243.676224 153.196320,240.855423 154.568420,243.700089 
	C156.047287,246.766129 157.143234,250.016876 158.586594,253.639740 
	C155.180298,253.639740 152.219055,253.639740 148.873154,253.639740 
	C150.008942,250.689789 151.111801,247.825394 152.385178,244.638351 
z"/>
</svg>